<svg id="Layer_1" enable-background="new 0 0 512 512" height="512" viewBox="0 0 512 512" width="512" xmlns="http://www.w3.org/2000/svg"><g><g><g><g><g><g><g><g><g><g><g><g><circle cx="256" cy="256" fill="#bee75e" r="256"/></g></g></g></g></g></g></g></g></g></g></g><path d="m512 256c0-11.853-.824-23.512-2.383-34.936l-132.257-132.258-13.17 1.879-27.418-26.941c-4.232-6.399-42.523-7.305-42.523-7.305l-22.751-22.304-111.998 105.365-32 7.5-2.281 128.452 50.568 50.845-29.702 133.203 43.885 43.885c21.067 5.609 43.196 8.615 66.03 8.615 141.385 0 256-114.615 256-256z" fill="#00da80"/><g><ellipse cx="256" cy="42.924" fill="#ffb942" rx="17.826" ry="17.826" transform="matrix(.16 -.987 .987 .16 172.624 288.743)"/><path d="m273.83 42.92c0 3.79-1.19 7.31-3.21 10.2-3.22 4.61-8.57 7.63-14.62 7.63v-35.65c9.84 0 17.83 7.98 17.83 17.82z" fill="#ff9b00"/><path d="m171.315 93.041h169.37v-16.27c0-13.061-10.588-23.649-23.649-23.649h-122.072c-13.061 0-23.649 10.588-23.649 23.649z" fill="#57545c"/><path d="m340.69 76.77v16.27h-84.69v-39.92h61.04c13.06 0 23.65 10.59 23.65 23.65z" fill="#262628"/><g><path d="m177.417 282.879h-30.334c-19.851 0-36-16.15-36-36v-90c0-19.851 16.149-36 36-36h30.334v30h-30.334c-3.309 0-6 2.691-6 6v90c0 3.309 2.691 6 6 6h30.334z" fill="#57545c"/></g><path d="m171.315 322.088v-233.282h206.045l-36.675 56.477v176.805z" fill="#fff"/><path d="m377.36 88.81-36.67 56.47v176.81h-84.69v-233.28z" fill="#defaf7"/><path d="m340.685 195.682-5.811-4.14c-15.867-11.304-36.449-13.607-54.423-6.089l-2.003.838c-14.326 5.993-30.491 5.805-44.674-.518-17.37-7.744-37.475-6.2-53.459 4.105l-9.001 5.803v126.405h169.37v-126.404z" fill="#fff59a"/><path d="m340.69 195.68v126.41h-84.69v-131.45c7.62.11 15.27-1.35 22.45-4.35l2-.84c17.97-7.51 38.56-5.21 54.42 6.09z" fill="#ffe370"/><path d="m340.685 317.873h-169.37l-25.23 141.627h219.83z" fill="#57545c"/><path d="m365.92 459.5h-109.92v-141.63h84.69z" fill="#262628"/><g><ellipse cx="256" cy="388.687" fill="#ffb942" rx="47.855" ry="47.855" transform="matrix(.919 -.394 .394 .919 -132.462 132.346)"/><path d="m303.86 388.69c0 26.43-21.43 47.85-47.86 47.85v-95.71c26.43 0 47.86 21.43 47.86 47.86z" fill="#ff9b00"/><path d="m257.001 366.473-23.215 23.215c-5.858 5.858-5.858 15.355 0 21.213 5.858 5.858 15.355 5.858 21.213 0l23.215-23.215c5.858-5.858 5.858-15.355 0-21.213-5.858-5.858-15.355-5.858-21.213 0z" fill="#fff59a"/><g><path d="m278.21 387.69-22.21 22.21v-42.43l1-1c2.93-2.93 6.77-4.39 10.61-4.39s7.67 1.46 10.6 4.39c5.86 5.86 5.86 15.36 0 21.22z" fill="#ffe370"/></g></g></g></g></svg>