<svg id="Layer_1" enable-background="new 0 0 512 512" height="512" viewBox="0 0 512 512" width="512" xmlns="http://www.w3.org/2000/svg"><g><g><g><g><g><g><g><g><g><g><g><g><circle cx="256" cy="256" fill="#bee75e" r="256"/></g></g></g></g></g></g></g></g></g></g></g><path d="m512 256c0-12.367-.896-24.522-2.591-36.42l-150.988-150.989-63.421 134.243-228.598 157.803 147.976 147.976c13.548 2.216 27.447 3.387 41.622 3.387 141.385 0 256-114.615 256-256z" fill="#00da80"/><g><path d="m457.503 167.673-99.081-99.081-184.022 184.021 21.213 21.213 16.906-16.906 77.868 77.868c10.106 10.106 26.491 10.106 36.597 0l130.519-130.518c10.105-10.106 10.105-26.491 0-36.597zm-109.311-30.588c-5.467-5.467-5.467-14.332 0-19.799s14.332-5.467 19.799 0 5.467 14.332 0 19.799c-5.468 5.468-14.332 5.468-19.799 0z" fill="#fff"/><path d="m441.583 151.759-72.542-72.542-184.017 184.017 10.592 10.592 16.907-16.907 61.95 61.95c10.105 10.105 26.488 10.112 36.593.007l130.525-130.525c10.104-10.104 10.097-26.487-.008-36.592zm-93.387-14.673c-5.473-5.473-5.466-14.333 0-19.799s14.326-5.473 19.799 0c5.466 5.466 5.466 14.333 0 19.799s-14.334 5.466-19.799 0z" fill="#defaf7"/><g><path d="m87.628 381.863-21.226-21.226c-5.124-5.124-5.124-13.509 0-18.633l92.382-92.382c5.124-5.124 13.509-5.124 18.633 0l21.226 21.226c5.124 5.124 5.124 13.509 0 18.633l-92.382 92.383c-5.124 5.123-13.509 5.123-18.633-.001z" fill="#57545c"/><path d="m198.637 289.48-92.376 92.377c-5.127 5.126-13.506 5.134-18.632.007l-10.614-10.614 111.015-111.016 10.614 10.614c5.127 5.127 5.119 13.506-.007 18.632z" fill="#262628"/></g></g></g></svg>