<svg id="Layer_1" enable-background="new 0 0 512 512" height="512" viewBox="0 0 512 512" width="512" xmlns="http://www.w3.org/2000/svg"><g><g><g><g><g><g><g><g><g><g><g><g><circle cx="256" cy="256" fill="#fff59a" r="256"/></g></g></g></g></g></g></g></g></g></g></g><path d="m512 256c0-5.148-.17-10.256-.47-15.329l-154.219-154.22c-113.939-39.049-176.561 9.049-176.561 9.049l-12.5 161-128.516-32.964 49.783 51.198c1.865 4.006 46.966 72.58 49.203 74.672l-9.97 68.442 91.141 91.141c12.239 1.889 24.766 2.903 37.513 2.994 140.738-.758 254.596-115.068 254.596-255.983z" fill="#ffe370"/><g><g><path d="m379.315 233.5h-30v-88.85c0-32.065-26.086-58.15-58.15-58.15h-49.829c-32.064 0-58.15 26.086-58.15 58.15v88.85h-30v-88.85c0-48.607 39.544-88.15 88.15-88.15h49.829c48.606 0 88.15 39.544 88.15 88.15z" fill="#57545c"/></g><g><path d="m379.31 144.65v88.85h-30v-88.85c0-32.06-26.08-58.15-58.15-58.15h-24.91v-30h24.91c48.61 0 88.15 39.54 88.15 88.15z" fill="#262628"/></g><path d="m177.217 360.115s-63.258-7.876-87.86-77.778c-17.844-50.7-49.623-58.801-49.623-58.801l33.516-30.036s65.901 16.611 91.59 59.465z" fill="#00da80"/><path d="m251.247 134.083h30v34.219h-30z" fill="#009393"/><path d="m266.248 134.083h15v34.22h-15z" fill="#00706d"/><path d="m227.722 111.503h77.052v30h-77.052z" fill="#57545c"/><g><path d="m266.248 111.503h38.53v30h-38.53z" fill="#262628"/></g><g><path d="m338 208.199h-143.5v-8.72c0-22.977 18.627-41.604 41.604-41.604h60.292c22.977 0 41.604 18.627 41.604 41.604z" fill="#00da80"/></g><g><path d="m338 199.48v8.72h-71.75v-50.32h30.15c22.97 0 41.6 18.62 41.6 41.6z" fill="#009393"/></g><g><path d="m403.75 391.5h-275v-93.75c0-57.576 46.674-104.25 104.25-104.25h66.5c57.576 0 104.25 46.674 104.25 104.25z" fill="#bee75e"/></g><g><path d="m403.75 297.75v93.75h-137.5v-198h33.25c13.6 0 26.59 2.6 38.5 7.34 3.89 1.55 7.67 3.32 11.31 5.31 11.48 6.25 21.65 14.6 30 24.53 15.25 18.13 24.44 41.53 24.44 67.07z" fill="#00da80"/></g><path d="m128.75 387.848h275v30h-275z" fill="#57545c"/><path d="m266.25 387.85h137.5v30h-137.5z" fill="#262628"/></g></g></svg>