<svg id="Layer_1" enable-background="new 0 0 512 512" height="512" viewBox="0 0 512 512" width="512" xmlns="http://www.w3.org/2000/svg"><g><g><g><g><g><g><g><g><g><g><g><g><circle cx="256" cy="256" fill="#ff5f1c" r="256"/></g></g></g></g></g></g></g></g></g></g></g><path d="m512 256c0-23.925-3.293-47.08-9.431-69.047l-48.997-48.245-383.989 245.738 116.6 117.914c22.194 6.278 45.613 9.64 69.817 9.64 141.385 0 256-114.615 256-256z" fill="#ff2034"/><g><path d="m395.573 387.02h-315.069c-13.557 0-24.65-11.092-24.65-24.65v-212.74c0-13.557 11.092-24.65 24.65-24.65h315.069c24.658 0 44.833 20.175 44.833 44.833v172.374c0 24.658-20.175 44.833-44.833 44.833z" fill="#fff"/><path d="m440.41 169.81v172.38c0 24.65-20.18 44.83-44.84 44.83h-200.36v-262.04h200.36c24.66 0 44.84 20.18 44.84 44.83z" fill="#defaf7"/><path d="m83.428 165.626h223.572v180.747h-223.572z" fill="#57545c"/><path d="m195.21 165.63h111.79v180.74h-111.79z" fill="#262628"/><path d="m456.146 362.37v-212.74c0-13.557-11.092-24.65-24.65-24.65h-96.496v262.04h96.496c13.557 0 24.65-11.093 24.65-24.65z" fill="#bee75e"/><path d="m456.15 149.63v212.74c0 13.56-11.1 24.65-24.65 24.65h-35.93v-262.04h35.93c13.55 0 24.65 11.09 24.65 24.65z" fill="#00da80"/><g><ellipse cx="395.573" cy="309.571" fill="#defaf7" rx="42.178" ry="25.929"/><path d="m437.75 309.57c0 14.32-18.88 25.93-42.18 25.93v-51.86c23.3 0 42.18 11.61 42.18 25.93z" fill="#b2feff"/><g><circle cx="364.702" cy="188.427" fill="#fff59a" r="11.927"/><circle cx="395.573" cy="188.427" fill="#fff59a" r="11.927"/><g fill="#ffe370"><path d="m407.5 188.43c0 6.58-5.34 11.92-11.93 11.92v-23.85c6.59 0 11.93 5.34 11.93 11.93z"/><circle cx="426.444" cy="188.427" r="11.927"/></g></g><g><ellipse cx="364.702" cy="220.579" fill="#fff59a" rx="11.927" ry="11.927" transform="matrix(.16 -.987 .987 .16 88.552 545.239)"/><ellipse cx="395.108" cy="220.579" fill="#fff59a" rx="11.927" ry="11.927" transform="matrix(.16 -.987 .987 .16 114.088 575.252)"/><g fill="#ffe370"><path d="m407.5 220.58c0 6.59-5.34 11.93-11.93 11.93v-23.86c6.59 0 11.93 5.34 11.93 11.93z"/><ellipse cx="426.444" cy="220.579" rx="11.927" ry="11.927" transform="matrix(.16 -.987 .987 .16 140.404 606.184)"/></g></g><g><circle cx="364.702" cy="252.731" fill="#fff59a" r="11.927"/><circle cx="395.573" cy="252.731" fill="#fff59a" r="11.927"/><g fill="#ffe370"><path d="m407.5 252.73c0 6.59-5.34 11.93-11.93 11.93v-23.86c6.59 0 11.93 5.34 11.93 11.93z"/><circle cx="426.444" cy="252.731" r="11.927"/></g></g></g></g></g></svg>