<?xml version="1.0" encoding="utf-8"?><svg xmlns="http://www.w3.org/2000/svg" xmlns:xlink="http://www.w3.org/1999/xlink"><symbol viewBox="0 0 125.397 125.397" id="animals--bull" xmlns="http://www.w3.org/2000/svg"><path d="M96.793 85.864c0 21.701 0 39.536-39.294 39.292h-.719c-39.295 2.696-39.295-17.591-39.295-39.292v-.641c0-21.7 17.593-39.292 39.295-39.292h.719c21.7 0 39.294 17.592 39.294 39.292v.641z" fill-rule="evenodd" clip-rule="evenodd"/><path d="M113.019 78.763c-1.116 1.425-4.337 5.587-2.872 11.961.646 2.809 1.379 4.486 1.945 5.748.59 1.261 2.187 3.708 3.563 4.896 1.122-1.427 1.491-1.618 2.659-3.507.724-1.18 1.377-3.024 1.249-4.33-.128-1.305-.297-2.707-1.275-4.609-.593-1.264-5.302-6.749-5.269-10.159z"/><path d="M117.101 100.494c.183-.729.31-1.502.378-2.318a2.93 2.93 0 10-5.84-.485c-.799 9.549-17.274 9.253-17.442 9.248a2.927 2.927 0 00-2.998 2.859 2.93 2.93 0 002.858 3c.856.019 19.915.321 23.044-12.304zM64.859 16.403S77.374 10.201 80.156 0c0 0 5.062 15.065-2.028 24.875-.001 0-4.897-7.037-13.269-8.472zm-16.282 0S36.062 10.201 33.28 0c0 0-5.062 15.065 2.028 24.875 0 0 4.897-7.037 13.269-8.472z"/><defs><path id="aa" d="M23.332 49.42c0-20.292 17.052-35.008 33.576-35.008 15.861 0 32.139 13.787 34.291 33.96 2.142 20.101-5.533 42.776-34.06 42.776-32.918-.001-33.807-21.435-33.807-41.728z"/></defs><use xlink:href="#aa" overflow="visible" fill-rule="evenodd" clip-rule="evenodd"/><path d="M63.231 49.596c-.54-18.882 14.565-25.756 15.707-26.468 4.654 3.938 5.546 5.179 8.393 10.114.685 1.186 1.959 6.827 1.977 6.964 0 0 1.212-1.939 1.89 3.847.646 5.51 1.107 10.228 0 16.646-.273.103-27.404 8.613-27.967-11.103z"/><path d="M85.666 75.094c0 8.866-15.549 16.772-25.302 16.772h-8.529c-9.755 0-23.684-7.906-23.684-16.772 0-8.867 7.908-16.054 17.663-16.054h22.19c9.753 0 17.662 7.187 17.662 16.054z" fill-rule="evenodd" clip-rule="evenodd"/><path d="M78.938 23.128s21.667-2.51 24.791 9.241c3.125 11.753 4.172 15.697 4.172 15.697s-22.295.147-25.418-11.604a22984.184 22984.184 0 00-3.545-13.334z"/><path d="M84.071 27.546s13.99-1.618 16.005 5.966l2.694 10.133s-14.394.096-16.411-7.49l-2.288-8.609zM34.782 23.686s-21.667-2.51-24.792 9.241L5.819 48.623s22.294.147 25.418-11.603l3.545-13.334z"/><path d="M29.65 28.104s-13.99-1.619-16.005 5.965l-2.694 10.134s14.394.095 16.411-7.491l2.288-8.608z"/><g fill-rule="evenodd" clip-rule="evenodd"><circle cx="41.142" cy="48.846" r="4.044"/><path d="M41.142 48.066a1.527 1.527 0 113.053 0 1.526 1.526 0 11-3.053 0z"/><circle cx="71.856" cy="48.098" r="4.044"/><path d="M71.856 47.316a1.527 1.527 0 113.053 0 1.526 1.526 0 11-3.053 0z"/></g><g fill-rule="evenodd" clip-rule="evenodd"><circle cx="49.217" cy="66.426" r="2.41"/><circle cx="64.599" cy="66.426" r="2.41"/></g><path d="M56.908 74.867c-4.655 0-8.441-3.787-8.441-8.441a.75.75 0 011.5 0 6.95 6.95 0 006.941 6.941c3.828 0 6.942-3.114 6.942-6.941a.75.75 0 011.5 0c0 4.655-3.787 8.441-8.442 8.441z"/></symbol><symbol viewBox="0 0 115.572 115.572" id="animals--chick" xmlns="http://www.w3.org/2000/svg"><g fill-rule="evenodd" clip-rule="evenodd"><path d="M70.191 114.09a1.483 1.483 0 01-2.965 0v-9.222a1.483 1.483 0 012.965 0v9.222z"/><path d="M76.489 110.034a1.482 1.482 0 11-2.011 2.178l-6.775-6.256a1.482 1.482 0 112.011-2.178l6.775 6.256z"/><path d="M60.926 110.034a1.482 1.482 0 102.012 2.178l6.775-6.256a1.482 1.482 0 10-2.011-2.178l-6.776 6.256zM48.557 114.09a1.483 1.483 0 01-2.965 0v-9.222a1.482 1.482 0 112.965 0v9.222z"/><path d="M54.856 110.034a1.482 1.482 0 11-2.012 2.178l-6.775-6.256a1.482 1.482 0 112.011-2.178l6.776 6.256z"/><path d="M39.292 110.034a1.482 1.482 0 102.012 2.178l6.775-6.256a1.482 1.482 0 10-2.011-2.178l-6.776 6.256z"/><path d="M90.383 73.638c0 17.674-14.327 32-32 32H57.19c-17.673 0-32-14.326-32-32v-36.25c0-17.674 14.327-32 32-32h1.193c17.673 0 32 14.326 32 32v36.25z"/><path d="M57.19 5.388S71.705 5.444 74.208 0c0 0 1.926 2.22 0 5.388 0 0 .169 1.165 3.17 0 0 0 1.668.608-4.667 3.388M77.643 85.781c0 10.966-8.89 19.856-19.856 19.856-10.967 0-19.856-8.891-19.856-19.856v-6.476c0-10.967 8.89-19.857 19.856-19.857 10.967 0 19.856 8.891 19.856 19.857v6.476z"/><g><path d="M82.053 61.017l4.084 14.867a6.4 6.4 0 007.869 4.477 6.4 6.4 0 004.476-7.868s-.992-4.628-1.66-6.046c-1.675-3.559-4.693-6.683-14.769-5.43zm-48.534 0l-4.083 14.867a6.4 6.4 0 01-7.868 4.477 6.401 6.401 0 01-4.478-7.868s.994-4.628 1.661-6.046c1.675-3.559 4.693-6.683 14.768-5.43z"/></g><g><circle cx="43.294" cy="40.091" r="3.965"/><path d="M43.294 39.327a1.497 1.497 0 112.994 0 1.496 1.496 0 11-2.994 0z"/><circle cx="72.278" cy="40.091" r="3.964"/><path d="M72.279 39.327a1.497 1.497 0 112.993 0 1.497 1.497 0 11-2.993 0zM57.786 57.386l-3.781-6.549-3.781-6.549h15.125l-3.781 6.549z"/></g></g></symbol><symbol viewBox="0 0 136.394 136.394" id="animals--crab" xmlns="http://www.w3.org/2000/svg"><g fill-rule="evenodd" clip-rule="evenodd"><path d="M106.796 78.378c2.753-4.492 8.627-5.903 13.118-3.149a9.54 9.54 0 013.15 13.118m-22.172 6.765c3.721-3.731 9.761-3.739 13.491-.02 3.73 3.722 3.738 9.761.018 13.492m-26.312-2.474c4.731-2.316 10.445-.359 12.763 4.373 2.317 4.732.358 10.445-4.372 12.763M30.072 78.378c-2.753-4.492-8.626-5.903-13.118-3.149-4.492 2.753-5.901 8.625-3.149 13.118m23.724 6.765c-3.72-3.731-9.761-3.739-13.491-.02-3.73 3.722-3.738 9.761-.018 13.492m26.311-2.474c-4.731-2.316-10.445-.359-12.763 4.373-2.316 4.732-.358 10.445 4.373 12.763M115.488 48.326L103.67 65.784c-1.598 2.429-3.709 1.17-5.75-.176-2.042-1.345 2.372-10.309 3.972-12.737l6.2-9.414"/><path d="M132.772 26.126c5.275 5.956 4.724 15.061-1.23 20.335-5.957 5.275-15.061 4.722-20.336-1.232"/><path d="M129.043 15.65c-8.301-4.982-19.068-2.294-24.052 6.008-4.982 8.3-2.291 19.066 6.009 24.05M20.906 48.326l11.816 17.458c1.6 2.429 3.709 1.17 5.751-.176 2.042-1.345-2.373-10.309-3.971-12.737l-6.201-9.414"/><path d="M3.623 26.126c-5.276 5.956-4.725 15.061 1.228 20.335 5.957 5.275 15.06 4.722 20.336-1.232"/><path d="M7.351 15.65c8.302-4.982 19.069-2.294 24.051 6.008 4.983 8.3 2.291 19.066-6.008 24.05"/><g><path d="M100.349 48.483a40.702 40.702 0 018.689 25.201c0 22.573-18.299 40.874-40.873 40.874S27.291 96.257 27.291 73.684c0-9.91 3.526-18.997 9.393-26.072"/><path d="M57.826 56.442a4.544 4.544 0 01-4.543 4.543h-1.328a4.543 4.543 0 01-4.541-4.543V38.78a4.54 4.54 0 014.541-4.541h1.328a4.541 4.541 0 014.543 4.541v17.662zm32.01 0a4.542 4.542 0 01-4.541 4.543h-1.328a4.543 4.543 0 01-4.541-4.543V38.78a4.54 4.54 0 014.541-4.541h1.328a4.54 4.54 0 014.541 4.541v17.662z"/><circle cx="84.632" cy="39.953" r="3.514"/><path d="M84.632 39.276a1.327 1.327 0 112.654 0 1.326 1.326 0 11-2.654 0z"/><circle cx="52.62" cy="39.953" r="3.514"/><path d="M52.62 39.276a1.328 1.328 0 112.654 0 1.328 1.328 0 11-2.654 0z"/></g></g></symbol><symbol viewBox="0 0 121.101 121.101" id="animals--fox" xmlns="http://www.w3.org/2000/svg"><path d="M63.298 84.602c9.878 8.14 22.859 2.689 30.54-5.806.601-.664 1.281-1.26 1.999-1.828 3.252-.153 6.785.214 9.682 1.828 0 0-5.193 3.922-7.167 8.226 0 0 5.823 1.186 10.396-1.694 0 0-.574 6.88-5.447 12.828a50.058 50.058 0 01-4.948 1.236c-30.029 5.917-38.67-11.149-38.67-11.149l3.615-3.641z"/><path d="M98.352 87.022c1.974-4.304 7.167-8.226 7.167-8.226-2.897-1.614-6.43-1.981-9.682-1.828 8.477-6.694 24.205-6.947 24.205-6.947s7.367 20.744-16.741 28.135c4.874-5.948 5.447-12.828 5.447-12.828-4.573 2.88-10.396 1.694-10.396 1.694z"/><path d="M81.692 78.792c0 19.177 0 34.936-34.723 34.722h-.635c-34.722 2.381-34.722-15.545-34.722-34.722v-.566c0-19.176 15.545-34.721 34.722-34.721h.635c19.176 0 34.723 15.545 34.723 34.721v.566z" fill-rule="evenodd" clip-rule="evenodd"/><g fill-rule="evenodd" clip-rule="evenodd"><path d="M65.785 20.027S74.808 7.374 92.211 7.374c0 0 1.751 16.41-9.369 29.097"/><path d="M65.946 23.724s6.994-9.809 20.485-9.809c0 0 1.357 12.721-7.264 22.555M26.527 20.027S17.504 7.374.1 7.374c0 0-1.751 16.41 9.37 29.097"/><path d="M26.366 23.724s-6.994-9.809-20.485-9.809c0 0-1.357 12.721 7.264 22.555"/><path d="M46.65 12.98s-36.619 0-45.561 46.228c0 0 34.206-6.913 45.562 10.813 9.225-15.88 45.56-10.813 45.56-10.813C83.269 12.98 46.65 12.98 46.65 12.98z"/><path d="M20.929 23.015s5.352 2.384 13.23 13.881c8.368 12.214 6.463 27.1 6.463 27.1s-10.153-7.33-39.533-4.787c0-.001 1.986-22.952 19.84-36.194zm51.629 0s-5.353 2.384-13.23 13.881c-8.368 12.214-6.464 27.1-6.464 27.1s10.153-7.33 39.534-4.787c-.001-.001-1.986-22.952-19.84-36.194z"/><g><circle cx="65.784" cy="42.24" r="3.832"/><circle cx="67.393" cy="41.501" r="1.447"/><circle cx="27.701" cy="42.24" r="3.832"/><circle cx="29.149" cy="41.501" r="1.447"/><path d="M52.678 63.996a6.027 6.027 0 01-12.054 0"/></g></g></symbol><symbol viewBox="0 0 121.566 121.566" id="animals--hedgehog" xmlns="http://www.w3.org/2000/svg"><circle cx="98.809" cy="20.075" r="9.647"/><path d="M104.371 20.075a5.563 5.563 0 11-11.126.002 5.563 5.563 0 0111.126-.002z"/><circle cx="21.359" cy="20.075" r="9.647"/><path d="M26.921 20.075a5.564 5.564 0 01-5.562 5.565 5.563 5.563 0 115.562-5.565z"/><path fill-rule="evenodd" clip-rule="evenodd" d="M.809 58.012l5.038-2.013-4.869-2.394 5.178-1.62-4.671-2.762 5.288-1.215-4.441-3.115 5.367-.8-4.186-3.451 5.412-.377-3.902-3.767 5.426.044L6.85 32.48l5.405.467-3.274-4.326 5.354.879-2.935-4.563 5.271 1.285-2.579-4.773 5.16 1.679-2.212-4.954 5.017 2.063-1.836-5.105 4.853 2.43-1.453-5.227 4.658 2.784-1.062-5.321 4.44 3.119-.666-5.384 4.198 3.438-.27-5.42 3.935 3.736.127-5.424 3.65 4.013.522-5.401 3.352 4.266.91-5.348 3.036 4.497L51.742.62l2.709 4.702L56.112.156l2.372 4.881L60.502 0l1.988 5.04L64.878.177l1.575 5.184L69.216.702l1.17 5.29 3.107-4.438.775 5.362 3.422-4.201.394 5.404 3.706-3.952.019 5.417 3.965-3.692-.342 5.407 4.202-3.419-.7 5.372 4.419-3.135-1.052 5.315 4.615-2.839-1.399 5.235 4.793-2.527-1.744 5.13 4.951-2.202-2.087 5.001 5.09-1.856-2.429 4.842 5.208-1.492-2.768 4.657 5.303-1.11-3.109 4.437 5.373-.705-3.439 4.185 5.41-.282-3.761 3.9 5.414.154-4.068 3.577 5.382.61-4.359 3.215 5.311 1.069-4.621 2.828 5.197 1.527-4.852 2.412 5.044 1.98-5.038 2.047 4.872 2.413-5.176 1.667 4.676 2.773-5.288 1.269 4.453 3.12-5.369.864 4.201 3.451-5.418.447 3.924 3.765-5.437.032 3.624 4.054-5.423-.387 3.302 4.32-5.378-.802 2.96 4.561-5.301-1.211 2.603 4.774-5.192-1.616 2.229 4.959-5.054-2.008 1.842 5.117-4.884-2.39 1.445 5.242-4.687-2.755 1.042 5.336-4.465-3.103.634 5.4-4.216-3.432.225 5.433-3.948-3.74-.18 5.435-3.66-4.022-.58 5.406-3.356-4.278-.971 5.35-3.039-4.509-1.35 5.267-2.716-4.711-1.711 5.161-2.389-4.886-2.058 5.034-2.039-5.032-2.356 4.892-1.706-5.154-2.675 4.725-1.358-5.256-2.99 4.531-.989-5.338-3.302 4.31-.604-5.395-3.605 4.061-.209-5.426-3.893 3.784.195-5.425-4.167 3.479.606-5.395-4.419 3.152 1.017-5.333-4.65 2.801 1.429-5.237-4.854 2.431 1.833-5.109-5.029 2.043 2.228-4.951-5.174 1.642 2.61-4.76-5.287 1.231 2.977-4.539-5.367.813 3.322-4.294-5.414.39 3.649-4.02-5.429-.032 3.949-3.725-5.409-.451 4.225-3.41-5.361-.865 4.471-3.082-5.279-1.264 4.689-2.738-5.171-1.653 4.877-2.386z"/><path d="M32.358 109.212c-6.759-5.672-8.203-19.682-8.279-34.185-.084-16.28 2.065-33.181 10.322-39.61 15.612-12.155 27.072 3.038 27.072 3.038s11.461-15.193 27.073-3.038c8.702 6.776 10.362 23.454 10.259 39.61-.083 12.826-.46 25.323-5.12 32.273-4.204 6.268-36.7 22.579-61.327 1.912z" fill-rule="evenodd" clip-rule="evenodd"/><g fill-rule="evenodd" clip-rule="evenodd"><path d="M77.075 101.08c-4.649 4.76-6.997 13.617-2.639 17.872 4.354 4.257 13.768 2.299 18.416-2.461 4.65-4.76 7.018-9.131.53-16.325-5.499-6.094-11.658-3.847-16.307.914z"/><path d="M76.141 102.126c-4.203 4.304-6.018 12.616-1.66 16.871 4.357 4.255 13.234 2.845 17.438-1.458 4.204-4.303 6.25-8.348-.276-15.498-5.534-6.061-11.297-4.218-15.502.085zM46.059 101.08c4.65 4.76 6.997 13.617 2.64 17.872-4.355 4.257-13.768 2.299-18.417-2.461-4.65-4.76-7.018-9.131-.529-16.325 5.497-6.094 11.657-3.847 16.306.914z"/><path d="M46.993 102.126c4.204 4.304 6.017 12.616 1.66 16.871-4.356 4.255-13.234 2.845-17.438-1.458-4.204-4.303-6.25-8.348.276-15.498 5.534-6.061 11.296-4.218 15.502.085z"/></g><g fill-rule="evenodd" clip-rule="evenodd"><circle cx="45.926" cy="55.094" r="3.521"/><path d="M45.926 54.415a1.33 1.33 0 112.659 0 1.33 1.33 0 11-2.659 0z"/><circle cx="74.412" cy="55.094" r="3.521"/><path d="M74.413 54.415a1.33 1.33 0 112.658 0 1.33 1.33 0 11-2.658 0z"/><g><path d="M66.406 51.573c-4.092 3.388-2.25 16.624-2.25 16.624h-6.747s1.081-13.236-3.011-16.624h12.008z"/><circle cx="60.782" cy="71.802" r="4.942"/></g></g></symbol><symbol viewBox="0 0 115.277 115.277" id="animals--hippopotamus" xmlns="http://www.w3.org/2000/svg"><g fill-rule="evenodd" clip-rule="evenodd"><path d="M101.616 72.315c0 19.176 0 34.936-42.545 34.722h-.777c-42.543 2.382-42.543-15.546-42.543-34.722v-.566c0-19.176 19.047-34.721 42.543-34.721h.777c23.496 0 42.545 15.545 42.545 34.721v.566z"/><path d="M75.256 89.267c-4.614 7.734-4.903 20.135 2.177 24.357 7.079 4.226 18.849-1.328 23.463-9.061 4.614-7.736 6.349-14.238-4.465-21.654-9.164-6.283-16.56-1.377-21.175 6.358z"/><path d="M74.359 90.94c-4.172 6.994-3.931 18.506 3.148 22.729 7.08 4.224 18.319-.439 22.491-7.434 4.173-6.992 5.588-12.963-5.265-20.311-9.199-6.226-16.201-1.978-20.374 5.016zM40.021 89.267c4.613 7.734 4.902 20.135-2.178 24.357-7.078 4.226-18.848-1.328-23.463-9.061-4.613-7.736-6.348-14.238 4.465-21.654 9.164-6.283 16.561-1.377 21.176 6.358z"/><path d="M40.917 90.94c4.172 6.994 3.932 18.506-3.148 22.729-7.08 4.224-18.318-.439-22.49-7.434-4.174-6.992-5.588-12.963 5.264-20.311 9.198-6.226 16.2-1.978 20.374 5.016z"/></g><circle cx="85.044" cy="10.69" r="7.5"/><circle cx="85.044" cy="10.69" r="4.324"/><circle cx="31.544" cy="10.69" r="7.5"/><circle cx="31.544" cy="10.69" r="4.324"/><ellipse cx="57.857" cy="34.229" rx="36.777" ry="34.229" fill-rule="evenodd" clip-rule="evenodd"/><g fill-rule="evenodd" clip-rule="evenodd"><circle cx="42.107" cy="27.702" r="4.074"/><path d="M42.279 26.917a1.538 1.538 0 113.076 0 1.538 1.538 0 11-3.076 0z"/><circle cx="73.609" cy="27.702" r="4.074"/><path d="M73.779 26.917a1.539 1.539 0 113.078 0 1.538 1.538 0 11-3.078 0z"/></g><path d="M92.544 52.876c0 10.64-9.989 19.264-22.311 19.264H47.428c-12.321 0-22.309-8.624-22.309-19.264 0-10.639 9.988-19.264 22.309-19.264h22.806c12.321 0 22.31 8.625 22.31 19.264z" fill-rule="evenodd" clip-rule="evenodd"/><path d="M25.445 56.146s33.953 12.079 66.937-.952c0 0 .402 14.405-20.264 16.945H43.661c0 .001-16.129-2.989-18.216-15.993z" fill-rule="evenodd" clip-rule="evenodd"/><circle cx="49.057" cy="44.903" r="2.981" fill-rule="evenodd" clip-rule="evenodd"/><circle cx="66.657" cy="44.903" r="2.981" fill-rule="evenodd" clip-rule="evenodd"/><path d="M70.275 43.255l.306.381c.107.114.188.284.28.491l.148.33.078.387c.077.271.053.57.053.891a3.754 3.754 0 01-.208.98c-.13.325-.272.66-.503.951-.186.323-.494.551-.747.825-.346.214-.56.426-.942.566-.344.178-.701.251-1.044.314a3.8 3.8 0 01-1.003.013c-.313-.063-.612-.099-.863-.227l-.363-.153-.291-.207c-.182-.127-.334-.241-.43-.372l-.314-.375.379.303c.108.109.273.194.463.286.094.046.191.096.297.149l.352.104c.236.097.517.099.802.129.286.002.593-.023.896-.082l.461-.121c.151-.046.285-.129.434-.187.283-.085.597-.371.851-.525.225-.243.509-.437.674-.724.209-.255.355-.54.484-.826.117-.286.203-.582.257-.863.025-.285.078-.561.029-.813l-.032-.365a21.37 21.37 0 01-.086-.313c-.051-.201-.103-.382-.191-.513l-.227-.434zm-24.653 0l-.224.434c-.089.131-.141.312-.19.513-.027.099-.057.203-.086.313-.012.116-.021.238-.033.365-.049.252.004.527.029.813.053.281.14.577.257.863.128.286.276.571.484.826.165.287.449.48.674.724.255.154.568.44.853.525.147.058.281.141.434.187l.459.121c.304.059.611.084.896.082.285-.03.565-.032.803-.129l.352-.104.295-.149c.19-.092.355-.177.463-.286l.381-.303-.316.375c-.094.131-.246.245-.43.372l-.289.207-.365.153c-.25.128-.549.163-.863.227a3.792 3.792 0 01-1.002-.013c-.344-.063-.701-.137-1.043-.314-.383-.141-.598-.352-.943-.566-.254-.274-.56-.502-.746-.825-.232-.291-.375-.626-.504-.951a3.796 3.796 0 01-.208-.98c0-.32-.024-.62.054-.891l.078-.387.148-.33c.09-.207.172-.377.279-.491l.303-.381z"/><path d="M52.398 66.768h-6.684v-6.305s2.633.306 3.467.355c1.463.085 3.217.248 3.217.248v5.702zm12.535 0h6.684v-6.305s-2.633.306-3.467.355c-1.461.085-3.217.248-3.217.248v5.702z" fill-rule="evenodd" clip-rule="evenodd"/></symbol><symbol viewBox="0 0 121.021 121.021" id="animals--koala" xmlns="http://www.w3.org/2000/svg"><g fill-rule="evenodd" clip-rule="evenodd"><path d="M96.575 81.31c0 19.176 0 34.936-34.724 34.721h-.636c-34.721 2.383-34.721-15.545-34.721-34.721v-.566c0-19.176 15.545-34.721 34.721-34.721h.636c19.177 0 34.724 15.545 34.724 34.721v.566z"/><path d="M88.702 81.469c0 19.079 7.873 34.389-25.977 35.878-33.986 2-25.977-16.799-25.977-35.878v-.563c0-19.077 11.524-34.542 25.74-34.542h.471c14.218 0 25.743 15.465 25.743 34.542v.563z"/><path d="M49.704 95.011c4.614 7.734 4.903 20.135-2.177 24.357-7.079 4.225-18.849-1.328-23.463-9.062-4.614-7.735-6.349-14.237 4.465-21.653 9.164-6.283 16.56-1.377 21.175 6.358z"/><path d="M50.602 96.685c4.172 6.993 3.931 18.506-3.148 22.729-7.08 4.223-18.319-.439-22.491-7.434-4.173-6.992-5.588-12.963 5.265-20.311 9.198-6.227 16.2-1.979 20.374 5.016zM75.902 95.011c-4.614 7.734-4.903 20.135 2.177 24.357 7.079 4.225 18.849-1.328 23.463-9.062 4.614-7.735 6.349-14.237-4.465-21.653-9.164-6.283-16.559-1.377-21.175 6.358z"/><path d="M75.005 96.685c-4.172 6.993-3.931 18.506 3.148 22.729 7.08 4.223 18.319-.439 22.491-7.434 4.173-6.992 5.588-12.963-5.265-20.311-9.198-6.227-16.2-1.979-20.374 5.016z"/><g><circle cx="96.81" cy="20.857" r="20.857"/><circle cx="24.21" cy="20.857" r="20.856"/><ellipse cx="25.168" cy="28.202" rx="15.644" ry="14.791"/><ellipse cx="96.575" cy="28.202" rx="15.644" ry="14.791"/><path d="M24.21 38.21c0-18.68 16.711-33.822 37.325-33.822C82.15 4.388 98.86 19.53 98.86 38.21s-9.247 33.822-37.325 33.822c-29.976 0-37.325-15.142-37.325-33.822z"/><circle cx="42.522" cy="39.882" r="4.074"/><path d="M42.693 39.095a1.539 1.539 0 113.076 0 1.538 1.538 0 11-3.076 0z"/><circle cx="80.027" cy="39.882" r="4.074"/><path d="M80.198 39.095a1.54 1.54 0 113.077 0 1.538 1.538 0 11-3.077 0z"/><g><path d="M68.598 55.45a5.649 5.649 0 01-5.65 5.649h-2.823a5.649 5.649 0 01-5.65-5.649V41.458a5.65 5.65 0 015.65-5.65h2.823a5.65 5.65 0 015.65 5.65V55.45z"/><circle cx="59.346" cy="57.946" r=".933"/><circle cx="63.659" cy="57.946" r=".934"/></g></g></g></symbol><symbol viewBox="0 0 114.358 114.358" id="animals--lemur" xmlns="http://www.w3.org/2000/svg"><g fill-rule="evenodd" clip-rule="evenodd"><path d="M91.795 76.921c0 19.176 0 34.936-34.725 34.721h-.635c-34.721 2.383-34.721-15.545-34.721-34.721v-.566c0-19.176 15.545-34.721 34.721-34.721h.635c19.178 0 34.725 15.545 34.725 34.721v.566z"/><path d="M83.922 77.081c0 19.079 5.645 34.788-25.744 34.544h-.471c-30.141 2.563-25.74-15.465-25.74-34.544v-.563c0-19.077 11.525-34.542 25.74-34.542h.471c14.219 0 25.744 15.465 25.744 34.542v.563z"/><path d="M47.233 91.595c4.039 6.769 4.291 17.621-1.904 21.316-6.195 3.698-16.496-1.162-20.535-7.93-4.037-6.77-5.556-12.46 3.908-18.95 8.019-5.499 14.492-1.205 18.531 5.564z"/><path d="M48.018 93.06c3.651 6.12 3.44 16.196-2.755 19.891-6.196 3.697-16.032-.384-19.684-6.505-3.652-6.12-4.891-11.345 4.607-17.775 8.052-5.45 14.18-1.732 17.832 4.389zM68.119 91.595c-4.039 6.769-4.291 17.621 1.904 21.316 6.195 3.698 16.496-1.162 20.535-7.93 4.037-6.77 5.556-12.46-3.908-18.95-8.019-5.499-14.491-1.205-18.531 5.564z"/><path d="M67.334 93.06c-3.651 6.12-3.44 16.196 2.755 19.891 6.196 3.697 16.032-.384 19.684-6.505 3.652-6.12 4.891-11.345-4.607-17.775-8.051-5.45-14.179-1.732-17.832 4.389z"/></g><g fill-rule="evenodd" clip-rule="evenodd"><circle cx="91.489" cy="13.238" r="9.107"/><ellipse cx="91.128" cy="13.238" rx="6.831" ry="6.458"/><circle cx="22.869" cy="13.238" r="9.106"/><ellipse cx="22.508" cy="13.238" rx="6.831" ry="6.458"/></g><path d="M19.43 33.822C19.43 15.142 36.141 0 56.754 0 77.369 0 94.08 15.142 94.08 33.822s-9.248 33.822-37.326 33.822c-29.976 0-37.324-15.143-37.324-33.822z" fill-rule="evenodd" clip-rule="evenodd"/><g fill-rule="evenodd" clip-rule="evenodd"><path d="M46.797 16.637s-4.76-7.357-14.698 2.303c-9.23 8.972-10.384 20.389-7.448 24.889 2.02 3.097 16.896 8.39 26.346-.638 9.449-9.027-4.2-26.554-4.2-26.554z"/><circle cx="39.194" cy="33.28" r="11.628"/><path d="M48.043 33.281a8.85 8.85 0 00-17.7 0 8.849 8.849 0 008.85 8.848c4.885 0 8.85-3.961 8.85-8.848z"/><path d="M39.816 31.572a3.092 3.092 0 116.183 0 3.091 3.091 0 11-6.183 0z"/><circle cx="37.357" cy="34.947" r="1.011"/></g><path d="M66.916 16.637s4.697-7.291 14.698 2.303c9.874 9.472 9.513 20.722 6.536 24.722-2.207 2.966-15.984 8.556-25.434-.471-9.448-9.027 4.2-26.554 4.2-26.554z" fill-rule="evenodd" clip-rule="evenodd"/><circle cx="74.097" cy="33.28" r="11.628" fill-rule="evenodd" clip-rule="evenodd"/><g fill-rule="evenodd" clip-rule="evenodd"><circle cx="74.096" cy="33.281" r="8.85"/><path d="M74.718 31.572a3.092 3.092 0 116.183 0 3.091 3.091 0 11-6.183 0z"/><circle cx="72.259" cy="34.947" r="1.011"/></g><path d="M59.385 43.606c0 1.826-1.133 3.306-2.528 3.306-1.396 0-2.528-1.48-2.528-3.306V16.544c0-1.826 1.132-3.306 2.528-3.306 1.396 0 2.528 1.48 2.528 3.306v27.062z" fill-rule="evenodd" clip-rule="evenodd"/><path d="M65.299 51.994a7.418 7.418 0 01-7.418 7.418h-2.254a7.418 7.418 0 010-14.836h2.254a7.418 7.418 0 017.418 7.418z" fill-rule="evenodd" clip-rule="evenodd"/><path d="M52.119 50.934c-.714-.837-.397-1.521.702-1.521h7.657c1.1 0 1.416.685.702 1.522l-3.233 3.79c-.714.837-1.882.837-2.596 0l-3.232-3.791z" fill-rule="evenodd" clip-rule="evenodd"/></symbol><symbol viewBox="0 0 110.927 110.927" id="animals--pig" xmlns="http://www.w3.org/2000/svg"><path d="M81.869 73.463c0 20.565 0 37.465-37.236 37.235h-.682C6.714 113.254 6.714 94.029 6.714 73.463v-.607c0-20.564 16.672-37.235 37.236-37.235h.682c20.563 0 37.236 16.67 37.236 37.235v.607z" fill-rule="evenodd" clip-rule="evenodd"/><path d="M75.334 92.353c4.51 3.805 11.985 4.545 17.303 2.087 3.139-1.448 10.792-7.838 3.886-9.813-3.745-1.07-7.313 1.399-6.898 5.273.58 5.448 6.193 8.135 11.068 7.882 1.736-.088 5.601-2.866 2.105-2.686-4.256.219-8.486-3.479-7.969-7.986.035-.159.08-.316.123-.476-2.436-.004-2.711.57-.825 1.725.619 1.466-2.435 3.529-3.265 4.073-2.986 1.962-8.184.046-10.65-2.038-1.304-1.098-6.121.913-4.878 1.959z"/><g fill-rule="evenodd" clip-rule="evenodd"><path d="M58.057 18.108S60.282 6.268 72.523.598c0 0 6.578 10.972 2.889 23.519"/><path d="M59.375 20.656s1.724-9.178 11.213-13.573c0 0 5.1 8.505 2.239 18.232M30.885 17.51S28.66 5.67 16.419 0c0 0-6.578 10.972-2.889 23.519"/><path d="M29.567 20.057s-1.724-9.178-11.213-13.573c0 0-5.1 8.505-2.239 18.231"/></g><defs><path id="ia" d="M6.966 42.382c0-18.68 16.711-33.822 37.325-33.822 20.615 0 37.325 15.142 37.325 33.822 0 18.679-9.247 33.822-37.325 33.822-29.976 0-37.325-15.142-37.325-33.822z"/></defs><use xlink:href="#ia" overflow="visible" fill-rule="evenodd" clip-rule="evenodd"/><g fill-rule="evenodd" clip-rule="evenodd"><circle cx="26.237" cy="38.385" r="3.832"/><circle cx="27.685" cy="37.646" r="1.447"/><circle cx="61.889" cy="37.675" r="3.832"/><circle cx="63.337" cy="36.936" r="1.447"/><g><circle cx="44.292" cy="51.733" r="13.037"/><circle cx="38.541" cy="51.733" r="1.663"/><circle cx="50.041" cy="51.733" r="1.663"/></g></g></symbol><symbol viewBox="0 0 116.667 116.667" id="animals--tiger" xmlns="http://www.w3.org/2000/svg"><path d="M111.345 110.98a4.607 4.607 0 01-4.608 4.607H56.32a4.607 4.607 0 010-9.214h50.417a4.608 4.608 0 014.608 4.607z"/><path d="M106.737 106.372a4.607 4.607 0 110 9.215m-9.849-9.214h3.333v9.214h-3.333zm-8 0h3.333v9.214h-3.333zm-8 0h3.333v9.214h-3.333z"/><path d="M81.304 79.202c0 20.565 0 37.465-37.236 37.236h-.682C6.15 118.993 6.15 99.768 6.15 79.202v-.607c0-20.564 16.672-37.235 37.236-37.235h.682c20.563 0 37.236 16.67 37.236 37.235v.607z" fill-rule="evenodd" clip-rule="evenodd"/><circle cx="68.313" cy="11.816" r="11.817"/><circle cx="68.313" cy="11.816" r="6.813"/><circle cx="17.139" cy="11.816" r="11.817"/><circle cx="17.139" cy="11.816" r="6.813"/><defs><path id="ja" d="M6.402 36.167c0-18.68 16.711-33.822 37.325-33.822 20.615 0 37.325 15.142 37.325 33.822 0 18.679-9.247 33.822-37.325 33.822-29.976 0-37.325-15.142-37.325-33.822z"/></defs><use xlink:href="#ja" overflow="visible" fill-rule="evenodd" clip-rule="evenodd"/><g fill-rule="evenodd" clip-rule="evenodd"><circle cx="29.389" cy="28.234" r="4.074"/><path d="M29.56 27.448a1.54 1.54 0 113.077 0 1.538 1.538 0 11-3.077 0z"/><circle cx="59.638" cy="28.234" r="4.074"/><path d="M59.809 27.448a1.54 1.54 0 113.077 0 1.539 1.539 0 11-3.077 0z"/></g><g fill-rule="evenodd" clip-rule="evenodd"><path d="M7.436 28.234l11.699 6.243-12.618 5.578s-.612-8.335.919-11.821zm-.622 15.055l18.501-.954-13.683 15.16s-3.766-4.858-4.818-14.206zM80.012 28.234l-11.699 6.243 12.618 5.578s.613-8.335-.919-11.821zm.622 15.055l-18.501-.954 13.269 14.701s4.181-4.399 5.232-13.747z"/></g><path fill-rule="evenodd" clip-rule="evenodd" d="M38.699 24.161h12.625l6.625 26.393H32.637zM57.949 50.554c0 5.699-5.666 10.319-12.656 10.319-6.989 0-12.655-4.62-12.655-10.319"/><path d="M37.407 68.527c-1.22 0-2.571-.165-4.052-.494a.502.502 0 01.217-.977c3.983.888 6.909.523 8.699-1.082 2.288-2.05 1.935-5.52 1.931-5.555a.5.5 0 01.994-.112c.019.162.42 4.005-2.25 6.405-1.343 1.209-3.198 1.815-5.539 1.815z"/><path d="M52.044 68.18c-2.342 0-4.196-.605-5.539-1.813-2.67-2.4-2.269-6.243-2.25-6.405a.49.49 0 01.553-.44.5.5 0 01.441.552c-.004.035-.358 3.505 1.931 5.555 1.788 1.605 4.718 1.969 8.699 1.082a.501.501 0 01.217.977c-1.48.327-2.833.492-4.052.492z"/></symbol><symbol viewBox="0 0 136.454 136.454" id="animals--whale" xmlns="http://www.w3.org/2000/svg"><path d="M80.278 64.891s4.976 23.738 23.541 15.133c0 0-7.758-7.357-4.508-11.678 3.248-4.324 15.898-17.247 15.898-17.247s10.338 10.586 1.207 20.647c0 0 9.104-7.737 20.037 1.111 0 0-15.064 22.968-24.867 13.943 0 0-17.727 27.917-60.322 31.251M40.238 33.192s-2.348-3.523-8.218-3.132c-5.87.392-2.348-8.608 4.109-7.435 6.458 1.174 3.327 6.261 4.109 10.567zm.649-10.672s.1-2.652-3.025-4.609c-3.126-1.957 1.97-5.235 4.817-2.268 2.849 2.968-.61 4.402-1.792 6.877zm1.319 10.672s2.348-3.523 8.217-3.132c5.871.392 2.35-8.608-4.108-7.435-6.457 1.174-3.327 6.261-4.109 10.567z"/><circle cx="41.221" cy="78.069" r="41.221"/><path d="M.055 80.204s14.175 5.596 24.787-.976c6.019-3.727 5.459 22.983 22.921 27.663 17.461 4.679 46.444-2.306 63.824-20.091 0 0-36.719 53.404-90.785 28.655 0 .001-19.907-8.505-20.747-35.251z"/><path d="M35.253 77.822c-.009 3.154.427 6.3 1.31 9.293.227.746.486 1.48.78 2.2.299.717.64 1.413 1.011 2.091l.6.989.669.939.727.891c.251.288.531.55.795.827.558.52 1.14 1.017 1.781 1.43.306.229.639.415.976.593.333.186.664.375 1.022.509.691.325 1.424.545 2.157.762.748.154 1.489.361 2.259.412l1.146.12 1.155.035c.771.056 1.545-.053 2.318-.07.771-.063 1.541-.185 2.313-.273l2.294-.445-.257.169c.193-.274.372-.67.524-1.029.14-.377.269-.761.358-1.158.117-.39.147-.803.227-1.203.032-.409.087-.817.1-1.229-.005-.412.016-.826-.01-1.24l-.107-1.241-.213-1.233c-.058-.414-.198-.813-.292-1.22-.107-.405-.201-.814-.353-1.208l-.412-1.191c-.135-.399-.317-.78-.475-1.172-.165-.388-.319-.782-.495-1.166-.384-.752-.749-1.518-1.151-2.264l-1.273-2.207 1.443 2.106c.449.723.864 1.469 1.299 2.205.201.376.382.765.573 1.146.182.388.397.761.55 1.162l.468 1.199c.169.396.282.812.407 1.224.113.415.271.819.348 1.245l.268 1.27.161 1.293c.044.433.039.87.061 1.307.003.437-.037.875-.059 1.313-.078.434-.106.875-.228 1.304a9.826 9.826 0 01-.379 1.277c-.177.423-.333.814-.623 1.242l-.091.135-.166.034-2.346.485c-.794.103-1.585.236-2.383.313-.803.029-1.601.148-2.409.103l-1.21-.023c-.402-.026-.804-.088-1.206-.132-.807-.064-1.596-.291-2.385-.466-.778-.239-1.554-.485-2.29-.841-.38-.148-.732-.354-1.087-.558a7.87 7.87 0 01-1.036-.647c-.68-.451-1.296-.989-1.883-1.551-.277-.297-.57-.58-.833-.889l-.756-.954-.666-1.014-.588-1.058a22.666 22.666 0 01-.967-2.205 25.866 25.866 0 01-.715-2.288 28.07 28.07 0 01-.493-2.338 32.561 32.561 0 01-.271-2.366c-.12-1.581-.148-3.17.008-4.744z"/><g fill-rule="evenodd" clip-rule="evenodd"><circle cx="17.305" cy="64.244" r="3.832"/><circle cx="18.752" cy="63.506" r="1.447"/></g></symbol><symbol viewBox="0 0 120.301 120.301" id="animals--zebra" xmlns="http://www.w3.org/2000/svg"><path d="M103.771 74.586c-1.093 1.397-4.252 5.477-2.815 11.726.634 2.754 1.352 4.397 1.907 5.635.578 1.236 2.143 3.635 3.492 4.799 1.099-1.399 1.462-1.586 2.606-3.438.709-1.156 1.35-2.964 1.223-4.244-.126-1.279-.29-2.654-1.25-4.519-.58-1.239-5.196-6.616-5.163-9.959z"/><path d="M107.772 95.889c.178-.715.303-1.472.37-2.272a2.873 2.873 0 00-5.725-.476c-.783 9.36-16.933 9.07-17.098 9.065a2.872 2.872 0 00-.137 5.744c.839.019 19.523.315 22.59-12.061z"/><path d="M87.865 81.547c0 21.273 0 38.756-38.519 38.518h-.706c-38.519 2.643-38.519-17.244-38.519-38.518v-.628c0-21.272 17.246-38.518 38.519-38.518h.705c21.272 0 38.519 17.245 38.519 38.518v.628z" fill-rule="evenodd" clip-rule="evenodd"/><path d="M87.286 90.016c-1.002.539-2.425 1.141-3 1.399a26.655 26.655 0 01-6.082 1.877c-4.108.762-8.205.68-12.156.14 3.973-.34 7.882-1.172 11.39-2.685a23.296 23.296 0 004.847-2.778c.624-.475 4.432-3.489 5.58-4.593-.009 4.533-.004 4.503-.087 6.358l-.492.282zm-1.143 12.173c-1.034.476-2.49.989-3.08 1.213a26.59 26.59 0 01-6.187 1.502c-4.146.511-8.23.18-12.141-.6 3.986-.098 7.94-.69 11.533-1.986 1.795-.639 3.395-1.64 5.006-2.479 3.596-1.875 4.948-3.738 6.162-4.769-.009 2.01-.548 4.066-.68 4.563-.047.18-.562 2.377-.613 2.556zM10.679 90.016c1.002.539 2.425 1.141 3 1.399 1.987.89 4.03 1.499 6.083 1.877 4.108.762 8.205.68 12.156.14-3.973-.34-7.882-1.172-11.39-2.685a23.296 23.296 0 01-4.847-2.778c-.624-.475-4.432-3.489-5.58-4.593.009 4.533.004 4.503.087 6.358l.491.282zm1.062 12.331c1.034.476 2.571.832 3.161 1.056a26.59 26.59 0 006.187 1.502c4.146.511 8.23.18 12.141-.6-3.986-.098-7.94-.69-11.533-1.986-1.795-.639-3.395-1.64-5.006-2.479-3.596-1.875-4.948-3.738-6.162-4.769.171 2.204.354 3.4.767 5.506.036.183.394 1.59.445 1.77z"/><g fill-rule="evenodd" clip-rule="evenodd"><path d="M44.876 13.933c-3.946-6.143 0-12.941 0-12.941s.844 1.26 1.272 1.16c0 0 .876-1.444 1.733-1.728 0 0-.144.922 0 1.346 0 0 1.502-1.416 3.004-1.77v1.77s.965-.105 1.573-1.063v1.346s.966-.495 1.287-1.204c0 0 4.075 7.225 0 13.084M38.58 19.541S35.001 7.603 21.79 3.107c0 0-5.57 12.004-.406 24.507"/><path d="M37.502 22.305s-2.774-9.253-13.015-12.738c0 0-4.318 9.306-.315 18.998M58.708 17.529s4.953-11.436 18.6-14.355c0 0 4.125 12.574-2.468 24.388"/><path d="M59.454 20.399s3.839-8.863 14.418-11.126c0 0 3.199 9.747-1.912 18.905"/></g><defs><path id="la" d="M15.852 45.822c0-19.893 16.943-36.312 33.141-36.312 15.548 0 31.279 15.509 33.387 35.283 2.1 19.705-5.424 41.933-33.387 41.933-32.269.001-33.141-21.011-33.141-40.904z"/></defs><use xlink:href="#la" overflow="visible" fill-rule="evenodd" clip-rule="evenodd"/><g fill-rule="evenodd" clip-rule="evenodd"><circle cx="33.311" cy="45.259" r="3.965"/><path d="M33.311 44.495a1.497 1.497 0 112.993 0 1.496 1.496 0 11-2.993 0z"/><circle cx="63.419" cy="44.525" r="3.965"/><path d="M63.42 43.76a1.497 1.497 0 112.993 0 1.497 1.497 0 11-2.993 0z"/><g><path d="M76.956 70.989c0 8.691-15.241 16.441-24.803 16.441h-8.361c-9.562 0-23.216-7.75-23.216-16.441 0-8.692 7.752-15.737 17.314-15.737h21.752c9.562 0 17.314 7.045 17.314 15.737z"/><circle cx="42.581" cy="62" r="2.981"/><circle cx="54.219" cy="62" r="2.981"/></g></g><path d="M17.796 34.074l8.913 4.491-10-.265c0 .001.113-1.63 1.087-4.226zm-1.887 9.966l9.407.559-9.463 3.891c-.001-.001-.102-2.438.056-4.45zm.04 9.165l11.439-1.145-11.152 6.068a31.612 31.612 0 01-.287-4.923zm63.852-19.131l-9.253 4.491 10.595-.363s-.368-1.532-1.342-4.128zm2.455 9.686l-10.315.839 10.692 3.398s.077-1.772-.377-4.237zm.413 9.318L71.098 52.06l11.153 5.854c0 .001.479-2.195.418-4.836z" fill-rule="evenodd" clip-rule="evenodd"/><path d="M68.429 17.547c-1.271-1.07-2.798-2.624-4.321-3.271L60.61 27.164l7.819-9.617zm-39.544.223l7.81 9.969-3.383-13.304c-1.363.528-1.615 1.175-2.737 1.939-.19.131-1.507 1.266-1.69 1.396z"/></symbol><symbol viewBox="0 0 512 512" id="kitchen--blender" xmlns="http://www.w3.org/2000/svg"><circle cx="256" cy="256" r="256"/><path d="M512 256a258.23 258.23 0 00-2.383-34.936L377.36 88.806l-13.17 1.879-27.418-26.941c-4.232-6.399-42.523-7.305-42.523-7.305l-22.751-22.304L159.5 139.5l-32 7.5-2.281 128.452 50.568 50.845L146.085 459.5l43.885 43.885C211.037 508.994 233.166 512 256 512c141.385 0 256-114.615 256-256z"/><circle cx="256" cy="42.924" transform="rotate(-80.8 255.984 42.96)" r="17.826"/><path d="M273.83 42.92c0 3.79-1.19 7.31-3.21 10.2-3.22 4.61-8.57 7.63-14.62 7.63V25.1c9.84 0 17.83 7.98 17.83 17.82z"/><path d="M171.315 93.041h169.37v-16.27c0-13.061-10.588-23.649-23.649-23.649H194.964c-13.061 0-23.649 10.588-23.649 23.649z"/><path d="M340.69 76.77v16.27H256V53.12h61.04c13.06 0 23.65 10.59 23.65 23.65zM177.417 282.879h-30.334c-19.851 0-36-16.15-36-36v-90c0-19.851 16.149-36 36-36h30.334v30h-30.334c-3.309 0-6 2.691-6 6v90c0 3.309 2.691 6 6 6h30.334z"/><path d="M171.315 322.088V88.806H377.36l-36.675 56.477v176.805z"/><path d="M377.36 88.81l-36.67 56.47v176.81H256V88.81z"/><path d="M340.685 195.682l-5.811-4.14a56.332 56.332 0 00-54.423-6.089l-2.003.838a56.329 56.329 0 01-44.674-.518 56.33 56.33 0 00-53.459 4.105l-9.001 5.803v126.405h169.37V195.682z"/><path d="M340.69 195.68v126.41H256V190.64c7.62.11 15.27-1.35 22.45-4.35l2-.84a56.357 56.357 0 0154.42 6.09z"/><path d="M340.685 317.873h-169.37L146.085 459.5h219.83z"/><path d="M365.92 459.5H256V317.87h84.69z"/><circle cx="256" cy="388.687" transform="rotate(-23.22 255.968 388.82)" r="47.855"/><path d="M303.86 388.69c0 26.43-21.43 47.85-47.86 47.85v-95.71c26.43 0 47.86 21.43 47.86 47.86z"/><path d="M257.001 366.473l-23.215 23.215c-5.858 5.858-5.858 15.355 0 21.213 5.858 5.858 15.355 5.858 21.213 0l23.215-23.215c5.858-5.858 5.858-15.355 0-21.213-5.858-5.858-15.355-5.858-21.213 0z"/><path d="M278.21 387.69L256 409.9v-42.43l1-1c2.93-2.93 6.77-4.39 10.61-4.39s7.67 1.46 10.6 4.39c5.86 5.86 5.86 15.36 0 21.22z"/></symbol><symbol viewBox="0 0 512 512" id="kitchen--cleaver" xmlns="http://www.w3.org/2000/svg"><circle cx="256" cy="256" r="256"/><path d="M512 256c0-12.367-.896-24.522-2.591-36.42L358.421 68.591 295 202.834 66.402 360.637l147.976 147.976A257.665 257.665 0 00256 512c141.385 0 256-114.615 256-256z"/><path d="M457.503 167.673l-99.081-99.081L174.4 252.613l21.213 21.213 16.906-16.906 77.868 77.868c10.106 10.106 26.491 10.106 36.597 0L457.503 204.27c10.105-10.106 10.105-26.491 0-36.597zm-109.311-30.588c-5.467-5.467-5.467-14.332 0-19.799s14.332-5.467 19.799 0 5.467 14.332 0 19.799c-5.468 5.468-14.332 5.468-19.799 0z"/><path d="M441.583 151.759l-72.542-72.542-184.017 184.017 10.592 10.592 16.907-16.907 61.95 61.95c10.105 10.105 26.488 10.112 36.593.007l130.525-130.525c10.104-10.104 10.097-26.487-.008-36.592zm-93.387-14.673c-5.473-5.473-5.466-14.333 0-19.799s14.326-5.473 19.799 0c5.466 5.466 5.466 14.333 0 19.799s-14.334 5.466-19.799 0z"/><path d="M87.628 381.863l-21.226-21.226c-5.124-5.124-5.124-13.509 0-18.633l92.382-92.382c5.124-5.124 13.509-5.124 18.633 0l21.226 21.226c5.124 5.124 5.124 13.509 0 18.633l-92.382 92.383c-5.124 5.123-13.509 5.123-18.633-.001z"/><path d="M198.637 289.48l-92.376 92.377c-5.127 5.126-13.506 5.134-18.632.007L77.015 371.25 188.03 260.234l10.614 10.614c5.127 5.127 5.119 13.506-.007 18.632z"/></symbol><symbol viewBox="0 0 512 512" id="kitchen--grater" xmlns="http://www.w3.org/2000/svg"><circle cx="256" cy="256" r="256"/><path d="M512 256c0-5.156-.171-10.272-.471-15.352L323.098 52.217S206.647 80.75 207.698 80.75c1.052 0-15.448 33-16.198 33.25s-37.667 33.301-37.667 33.301l16.629 16.049-21.129 241.983-25.833 27.815 71.525 71.525A256.559 256.559 0 00256 512c141.385 0 256-114.615 256-256z"/><path d="M347.149 144.301H164.851L133 410.123h246z"/><path d="M379 410.12H256V144.3h91.15l.36 3 30.65 255.85z"/><path d="M123.5 403.148h265v30h-265z"/><path d="M256 403.15h132.5v30H256zM218.765 112.384h-30V52.217h134.333l.137 60.037-30 .068-.069-30.105h-74.401z"/><path d="M323.23 112.254l-30 .07-.02-10.15-.04-19.96H256v-30h67.1l.11 49.96z"/><path d="M358.167 147.301H153.833v-11c0-15.464 12.536-28 28-28h148.333c15.464 0 28 12.536 28 28v11z"/><ellipse cx="207.699" cy="191.701" rx="8.53" ry="11.913"/><ellipse cx="256" cy="191.701" rx="8.531" ry="11.913"/><path d="M264.53 191.7c0 6.58-3.82 11.91-8.53 11.91v-23.82c4.71 0 8.53 5.33 8.53 11.91z"/><ellipse cx="304.301" cy="191.701" rx="8.53" ry="11.913"/><ellipse cx="207.699" cy="303.95" rx="8.53" ry="11.913"/><ellipse cx="256" cy="303.95" rx="8.531" ry="11.913"/><path d="M264.53 303.95c0 6.58-3.82 11.91-8.53 11.91v-23.82c4.71 0 8.53 5.33 8.53 11.91z"/><ellipse cx="304.301" cy="303.95" rx="8.53" ry="11.913"/><g><ellipse cx="186.435" cy="248.091" rx="8.72" ry="12.178"/><ellipse cx="232.811" cy="248.091" rx="8.72" ry="12.178"/><ellipse cx="279.188" cy="248.091" rx="8.72" ry="12.178"/><ellipse cx="325.565" cy="248.091" rx="8.72" ry="12.178"/></g><g><ellipse cx="186.435" cy="362.458" rx="8.72" ry="12.178"/><ellipse cx="232.811" cy="362.458" rx="8.72" ry="12.178"/><ellipse cx="279.188" cy="362.458" rx="8.72" ry="12.178"/><ellipse cx="325.565" cy="362.458" rx="8.72" ry="12.178"/></g><path d="M358.17 136.3v11H256v-39h74.17c15.46 0 28 12.54 28 28z"/></symbol><symbol viewBox="0 0 512 512" id="kitchen--jar" xmlns="http://www.w3.org/2000/svg"><circle cx="256" cy="256" r="256"/><path d="M512 256c0-13.517-1.056-26.786-3.074-39.736L367.924 75.262l-223.848 30L187.25 151.5l-31.128 284.735 75.079 74.566c8.162.785 16.432 1.2 24.799 1.2C397.385 512 512 397.385 512 256z"/><path d="M171 102.328h170v45.766H171z"/><path d="M256 102.33h85v45.76h-85z"/><path d="M341.456 440.738H170.544c-14.007 0-25.362-11.355-25.362-25.362v-254.92c0-14.007 11.355-25.362 25.362-25.362h170.912c14.007 0 25.362 11.355 25.362 25.362v254.921c0 14.007-11.355 25.361-25.362 25.361z"/><path d="M366.82 160.46v254.92c0 14-11.36 25.36-25.36 25.36H256V135.09h85.46c14 0 25.36 11.36 25.36 25.37zM144.076 75.262h223.848v30H144.076z"/><path d="M256 75.26h111.92v30H256zM329.044 190.787a65.151 65.151 0 00-49.631-.51 65.153 65.153 0 01-47.029.528l-2.713-1.015a65.151 65.151 0 00-49.937 1.774l-17.659 8.079V407.24c0 8.007 6.491 14.499 14.499 14.499h158.854c8.007 0 14.499-6.491 14.499-14.499V199.642z"/><path d="M349.93 199.64v207.6c0 8.01-6.5 14.5-14.5 14.5H256V194.93c7.96-.09 15.9-1.65 23.41-4.65a65.088 65.088 0 0149.63.51z"/><circle cx="256" cy="293.229" r="60.896"/><path d="M316.9 293.23c0 33.63-27.27 60.9-60.9 60.9v-121.8c33.63 0 60.9 27.27 60.9 60.9z"/><circle cx="256" cy="293.229" transform="rotate(-76.94 255.896 293.25)" r="35.229"/><path d="M291.23 293.23c0 19.46-15.77 35.23-35.23 35.23V258c19.46 0 35.23 15.77 35.23 35.23z"/></symbol><symbol viewBox="0 0 512 512" id="kitchen--kettle" xmlns="http://www.w3.org/2000/svg"><circle cx="256" cy="256" r="256"/><path d="M512 256c0-5.148-.17-10.256-.47-15.329L357.311 86.451C243.372 47.402 180.75 95.5 180.75 95.5l-12.5 161-128.516-32.964 49.783 51.198c1.865 4.006 46.966 72.58 49.203 74.672l-9.97 68.442 91.141 91.141a257.906 257.906 0 0037.513 2.994C398.142 511.225 512 396.915 512 256z"/><path d="M379.315 233.5h-30v-88.85c0-32.065-26.086-58.15-58.15-58.15h-49.829c-32.064 0-58.15 26.086-58.15 58.15v88.85h-30v-88.85c0-48.607 39.544-88.15 88.15-88.15h49.829c48.606 0 88.15 39.544 88.15 88.15z"/><path d="M379.31 144.65v88.85h-30v-88.85c0-32.06-26.08-58.15-58.15-58.15h-24.91v-30h24.91c48.61 0 88.15 39.54 88.15 88.15zM177.217 360.115s-63.258-7.876-87.86-77.778c-17.844-50.7-49.623-58.801-49.623-58.801L73.25 193.5s65.901 16.611 91.59 59.465zM251.247 134.083h30v34.219h-30z"/><path d="M266.248 134.083h15v34.22h-15z"/><path d="M227.722 111.503h77.052v30h-77.052z"/><path d="M266.248 111.503h38.53v30h-38.53zM338 208.199H194.5v-8.72c0-22.977 18.627-41.604 41.604-41.604h60.292c22.977 0 41.604 18.627 41.604 41.604z"/><path d="M338 199.48v8.72h-71.75v-50.32h30.15c22.97 0 41.6 18.62 41.6 41.6z"/><path d="M403.75 391.5h-275v-93.75c0-57.576 46.674-104.25 104.25-104.25h66.5c57.576 0 104.25 46.674 104.25 104.25z"/><path d="M403.75 297.75v93.75h-137.5v-198h33.25c13.6 0 26.59 2.6 38.5 7.34 3.89 1.55 7.67 3.32 11.31 5.31a104.54 104.54 0 0130 24.53c15.25 18.13 24.44 41.53 24.44 67.07z"/><path d="M128.75 387.848h275v30h-275z"/><path d="M266.25 387.85h137.5v30h-137.5z"/></symbol><symbol viewBox="0 0 512 512" id="kitchen--microwave" xmlns="http://www.w3.org/2000/svg"><circle cx="256" cy="256" r="256"/><path d="M512 256c0-23.925-3.293-47.08-9.431-69.047l-48.997-48.245L69.583 384.446l116.6 117.914C208.377 508.638 231.796 512 256 512c141.385 0 256-114.615 256-256z"/><path d="M395.573 387.02H80.504c-13.557 0-24.65-11.092-24.65-24.65V149.63c0-13.557 11.092-24.65 24.65-24.65h315.069c24.658 0 44.833 20.175 44.833 44.833v172.374c0 24.658-20.175 44.833-44.833 44.833z"/><path d="M440.41 169.81v172.38c0 24.65-20.18 44.83-44.84 44.83H195.21V124.98h200.36c24.66 0 44.84 20.18 44.84 44.83z"/><path d="M83.428 165.626H307v180.747H83.428z"/><path d="M195.21 165.63H307v180.74H195.21zM456.146 362.37V149.63c0-13.557-11.092-24.65-24.65-24.65H335v262.04h96.496c13.557 0 24.65-11.093 24.65-24.65z"/><path d="M456.15 149.63v212.74c0 13.56-11.1 24.65-24.65 24.65h-35.93V124.98h35.93c13.55 0 24.65 11.09 24.65 24.65z"/><ellipse cx="395.573" cy="309.571" rx="42.178" ry="25.929"/><path d="M437.75 309.57c0 14.32-18.88 25.93-42.18 25.93v-51.86c23.3 0 42.18 11.61 42.18 25.93z"/><circle cx="364.702" cy="188.427" r="11.927"/><circle cx="395.573" cy="188.427" r="11.927"/><path d="M407.5 188.43c0 6.58-5.34 11.92-11.93 11.92V176.5c6.59 0 11.93 5.34 11.93 11.93z"/><circle cx="426.444" cy="188.427" r="11.927"/><circle cx="364.702" cy="220.579" transform="rotate(-80.8 364.654 220.626)" r="11.927"/><circle cx="395.108" cy="220.579" transform="rotate(-80.8 395.059 220.63)" r="11.927"/><path d="M407.5 220.58c0 6.59-5.34 11.93-11.93 11.93v-23.86c6.59 0 11.93 5.34 11.93 11.93z"/><circle cx="426.444" cy="220.579" transform="rotate(-80.8 426.394 220.635)" r="11.927"/><g><circle cx="364.702" cy="252.731" r="11.927"/><circle cx="395.573" cy="252.731" r="11.927"/><path d="M407.5 252.73c0 6.59-5.34 11.93-11.93 11.93V240.8c6.59 0 11.93 5.34 11.93 11.93z"/><circle cx="426.444" cy="252.731" r="11.927"/></g></symbol></svg>