<svg id="Layer_1" enable-background="new 0 0 512 512" height="512" viewBox="0 0 512 512" width="512" xmlns="http://www.w3.org/2000/svg"><g><g><g><g><g><g><g><g><g><g><g><g><circle cx="256" cy="256" fill="#ff5f1c" r="256"/></g></g></g></g></g></g></g></g></g></g></g><path d="m512 256c0-5.156-.171-10.272-.471-15.352l-188.431-188.431s-116.451 28.533-115.4 28.533c1.052 0-15.448 33-16.198 33.25s-37.667 33.301-37.667 33.301l16.629 16.049-21.129 241.983-25.833 27.815 71.525 71.525c19.544 4.776 39.96 7.327 60.975 7.327 141.385 0 256-114.615 256-256z" fill="#ff2034"/><g><path d="m347.149 144.301h-182.298l-31.851 265.822h246z" fill="#fff"/><path d="m379 410.12h-123v-265.82h91.15l.36 3 30.65 255.85z" fill="#cac7cd"/><path d="m123.5 403.148h265v30h-265z" fill="#ffb942"/><path d="m256 403.15h132.5v30h-132.5z" fill="#ff9b00"/><g><g><path d="m218.765 112.384h-30v-60.167h134.333l.137 60.037-30 .068-.069-30.105h-74.401z" fill="#fff59a"/></g><g><path d="m323.23 112.254-30 .07-.02-10.15-.04-19.96h-37.17v-30h67.1l.11 49.96z" fill="#ffe370"/></g></g><path d="m358.167 147.301h-204.334v-11c0-15.464 12.536-28 28-28h148.333c15.464 0 28 12.536 28 28v11z" fill="#bee75e"/><g><g><ellipse cx="207.699" cy="191.701" fill="#dadadc" rx="8.53" ry="11.913"/><ellipse cx="256" cy="191.701" fill="#dadadc" rx="8.531" ry="11.913"/><g fill="#8d8a94"><path d="m264.53 191.7c0 6.58-3.82 11.91-8.53 11.91v-23.82c4.71 0 8.53 5.33 8.53 11.91z"/><ellipse cx="304.301" cy="191.701" rx="8.53" ry="11.913"/></g></g><g><ellipse cx="207.699" cy="303.95" fill="#dadadc" rx="8.53" ry="11.913"/><ellipse cx="256" cy="303.95" fill="#dadadc" rx="8.531" ry="11.913"/><g fill="#8d8a94"><path d="m264.53 303.95c0 6.58-3.82 11.91-8.53 11.91v-23.82c4.71 0 8.53 5.33 8.53 11.91z"/><ellipse cx="304.301" cy="303.95" rx="8.53" ry="11.913"/></g></g><g><ellipse cx="186.435" cy="248.091" fill="#dadadc" rx="8.72" ry="12.178"/><ellipse cx="232.811" cy="248.091" fill="#dadadc" rx="8.72" ry="12.178"/><g fill="#8d8a94"><ellipse cx="279.188" cy="248.091" rx="8.72" ry="12.178"/><ellipse cx="325.565" cy="248.091" rx="8.72" ry="12.178"/></g></g><g><ellipse cx="186.435" cy="362.458" fill="#dadadc" rx="8.72" ry="12.178"/><ellipse cx="232.811" cy="362.458" fill="#dadadc" rx="8.72" ry="12.178"/><g fill="#8d8a94"><ellipse cx="279.188" cy="362.458" rx="8.72" ry="12.178"/><ellipse cx="325.565" cy="362.458" rx="8.72" ry="12.178"/></g></g></g></g><path d="m358.17 136.3v11h-102.17v-39h74.17c15.46 0 28 12.54 28 28z" fill="#00da80"/></g></svg>