<svg id="Layer_1" enable-background="new 0 0 512 512" height="512" viewBox="0 0 512 512" width="512" xmlns="http://www.w3.org/2000/svg"><g><g><g><g><g><g><g><g><g><g><g><g><circle cx="256" cy="256" fill="#ffdbe1" r="256"/></g></g></g></g></g></g></g></g></g></g></g><path d="m512 256c0-13.517-1.056-26.786-3.074-39.736l-141.002-141.002-223.848 30 43.174 46.238-31.128 284.735 75.079 74.566c8.162.785 16.432 1.2 24.799 1.2 141.385-.001 256-114.616 256-256.001z" fill="#ffa7b2"/><g><g><path d="m171 102.328h170v45.766h-170z" fill="#defaf7"/><path d="m256 102.33h85v45.76h-85z" fill="#b2feff"/><path d="m341.456 440.738h-170.912c-14.007 0-25.362-11.355-25.362-25.362v-254.92c0-14.007 11.355-25.362 25.362-25.362h170.912c14.007 0 25.362 11.355 25.362 25.362v254.921c0 14.007-11.355 25.361-25.362 25.361z" fill="#fff"/><path d="m366.82 160.46v254.92c0 14-11.36 25.36-25.36 25.36h-85.46v-305.65h85.46c14 0 25.36 11.36 25.36 25.37z" fill="#defaf7"/><path d="m144.076 75.262h223.848v30h-223.848z" fill="#57545c"/><g><g><path d="m256 75.26h111.92v30h-111.92z" fill="#262628"/></g></g></g><path d="m329.044 190.787c-15.829-6.712-33.668-6.895-49.631-.51-15.064 6.025-31.834 6.214-47.029.528l-2.713-1.015c-16.22-6.069-34.189-5.431-49.937 1.774l-17.659 8.079v207.597c0 8.007 6.491 14.499 14.499 14.499h158.854c8.007 0 14.499-6.491 14.499-14.499v-207.598z" fill="#ff5f1c"/><path d="m349.93 199.64v207.6c0 8.01-6.5 14.5-14.5 14.5h-79.43v-226.81c7.96-.09 15.9-1.65 23.41-4.65 15.97-6.39 33.81-6.21 49.63.51z" fill="#ff2034"/><circle cx="256" cy="293.229" fill="#fff59a" r="60.896"/><path d="m316.9 293.23c0 33.63-27.27 60.9-60.9 60.9v-121.8c33.63 0 60.9 27.27 60.9 60.9z" fill="#ffe370"/><ellipse cx="256" cy="293.229" fill="#bee75e" rx="35.229" ry="35.229" transform="matrix(.226 -.974 .974 .226 -87.562 476.218)"/><path d="m291.23 293.23c0 19.46-15.77 35.23-35.23 35.23v-70.46c19.46 0 35.23 15.77 35.23 35.23z" fill="#00da80"/></g></g></svg>